<?xml version="1.0" encoding="iso-8859-1"?>
<!-- Generator: Adobe Illustrator 16.0.0, SVG Export Plug-In . SVG Version: 6.00 Build 0)  -->
<!DOCTYPE svg PUBLIC "-//W3C//DTD SVG 1.1//EN" "http://www.w3.org/Graphics/SVG/1.1/DTD/svg11.dtd">
<svg version="1.1" id="Capa_1" xmlns="http://www.w3.org/2000/svg" xmlns:xlink="http://www.w3.org/1999/xlink" x="0px" y="0px"
	 width="59.514px" height="59.515px" viewBox="0 0 59.514 59.515" style="enable-background:new 0 0 59.514 59.515;"
	 xml:space="preserve">
<g>
	<g>
		<path d="M22.224,28.583c9.862,3.15,15.894,4.07,19.596,2.939c0.312-1.581,1.004-2.642,1.909-3.363l-2.51,0.007
			c-6.815,0-13.821-0.329-24.544-4.309c-8.687-3.224-12.942-3.57-14.854-3.422C6.317,22.476,15.033,26.286,22.224,28.583z"/>
		<path d="M2.748,36.905c2.661-0.057,3.069-0.3,3.317-0.448c0.305-0.183,0.567-0.303,1.379-0.303c1.643,0,6.131,0.515,18.472,2.115
			c4.28,0.556,8.307,0.837,11.967,0.837c16.031,0,20.938-5.325,21.632-6.197c-0.117-2.167-2.555-3.648-6.99-4.326
			c-1.083,0.457-2.243,0.638-3.33,0.728c-0.958,0.079-1.742,0.181-2.399,0.353c-0.473,0.481-1.139,1.022-2.058,1.598
			c-0.152,0.364-0.268,0.782-0.317,1.311c-0.07,0.739-0.671,1.275-1.429,1.275c-0.389,0-0.75-0.152-0.994-0.42
			c-0.198-0.218-0.285-0.506-0.296-0.812c-1.001,0.255-2.125,0.399-3.428,0.399c-3.851,0-9.117-1.127-16.367-3.442
			c-7.713-2.463-17.153-6.651-21.352-8.572C-1.294,31.028,2.012,35.962,2.748,36.905z"/>
		<path d="M42.42,32.417c-0.003,0.03-0.008,0.058-0.011,0.087c-0.039,0.412,0.261,0.616,0.582,0.616s0.664-0.206,0.702-0.616
			c0.024-0.248,0.062-0.476,0.107-0.692c0.142-0.691,0.383-1.229,0.715-1.644c0.321-0.404,0.729-0.693,1.196-0.91
			c0.534-0.248,1.149-0.399,1.826-0.5c0.503-0.076,1.038-0.125,1.596-0.173c0.551-0.046,1.09-0.113,1.61-0.217
			c0.455-0.09,0.897-0.208,1.318-0.369c0.289-0.112,0.564-0.251,0.832-0.406c0.553-0.32,1.062-0.733,1.504-1.295
			c0.724-0.924,0.144-1.709-0.807-1.709c-0.123,0-0.253,0.014-0.387,0.041c-1.65,0.344-3.621,1.233-4.74,2.548
			c-0.027,0.031-0.06,0.06-0.086,0.092c-0.027,0.034-0.035,0.07-0.055,0.104c-0.435,0.044-0.85,0.101-1.244,0.174
			c-0.044,0.008-0.085,0.018-0.129,0.026c-0.12,0.023-0.239,0.046-0.355,0.073c-0.55,0.127-1.056,0.293-1.512,0.512
			c-1.196,0.574-2.05,1.512-2.455,3.067C42.533,31.587,42.465,31.985,42.42,32.417z M52.898,26.036
			c-0.407,0.387-0.878,0.652-1.409,0.849c-0.331,0.122-0.676,0.197-1.024,0.257C51.21,26.648,52.078,26.286,52.898,26.036z"/>
	</g>
</g>
<g>
</g>
<g>
</g>
<g>
</g>
<g>
</g>
<g>
</g>
<g>
</g>
<g>
</g>
<g>
</g>
<g>
</g>
<g>
</g>
<g>
</g>
<g>
</g>
<g>
</g>
<g>
</g>
<g>
</g>
</svg>
