<?xml version="1.0" encoding="iso-8859-1"?>
<!-- Generator: Adobe Illustrator 16.0.0, SVG Export Plug-In . SVG Version: 6.00 Build 0)  -->
<!DOCTYPE svg PUBLIC "-//W3C//DTD SVG 1.1//EN" "http://www.w3.org/Graphics/SVG/1.1/DTD/svg11.dtd">
<svg version="1.1" id="Capa_1" xmlns="http://www.w3.org/2000/svg" xmlns:xlink="http://www.w3.org/1999/xlink" x="0px" y="0px"
	 width="469.896px" height="469.896px" viewBox="0 0 469.896 469.896" style="enable-background:new 0 0 469.896 469.896;"
	 xml:space="preserve">
<g>
	<g>
		<path d="M407.45,117.378l16.924,39.103c-45.323,8.194-67.213,1.512-77.587-5.811c-6.226-4.389-8.572-9.124-9.433-11.644
			c29.602-10.834,56.862-21.811,71.764-27.937C407.25,112.569,406.453,115.095,407.45,117.378z"/>
		<path d="M108.729,148.497c0.01,0.031,1.068,3.454-1.935,8.152c-5.37,8.389-24.716,22.862-93.673,27.282l3.528-45.628
			c0.021-0.299,0.021-0.593-0.005-0.887l-0.491-5.534c1.252,1.266,3.047,1.948,4.924,1.549c34.528-7.675,58.405,2.279,86.072,13.806
			c0.483,0.199,0.971,0.399,1.457,0.603C108.663,148.055,108.642,148.281,108.729,148.497z"/>
		<path d="M175.89,401.828C148.183,412.284,96.086,413.87,4.2,363.784c28.854-7.558,125.621-28.278,207.021,8.531
			C207.378,379.492,197.423,393.702,175.89,401.828z"/>
		<path d="M268.12,407.859c32.745-75.717,173.22-85.371,201.776-86.548C427.239,401.146,300.457,407.55,268.12,407.859z"/>
		<g>
			<path d="M250.659,155.252c52.967-12.326,143.017-49.339,162.375-57.413c-2.257-16.604-7.685-34.342-12.745-35.613
				c-9.994-2.457-80.998,19.256-120.121,40.484c-4.955,2.693-9.497,5.401-13.854,8.006c-14.488,8.64-27.465,16.372-46.932,18.509
				v29.282C238.041,157.735,250.44,155.299,250.659,155.252L250.659,155.252z M234.477,157.274c-8.316,0-15.085-6.762-15.085-15.077
				c0-8.314,6.769-15.081,15.085-15.081c8.318,0,15.08,6.766,15.08,15.081C249.557,150.512,242.795,157.274,234.477,157.274z"/>
			<path d="M234.477,137.872c2.387,0,4.324,1.937,4.324,4.325c0,2.389-1.938,4.326-4.324,4.326c-2.392,0-4.329-1.937-4.329-4.326
				C230.148,139.809,232.085,137.872,234.477,137.872z"/>
			<path d="M18.743,122.926c37.859-8.404,64.416,2.662,92.54,14.383c16.753,6.988,34.089,14.215,55.129,17.922
				c15.131,2.667,29.612,3.512,42.213,3.491v-28.918c-18.336,0.052-42.152-4.347-76.153-15.948
				C60.505,89.304,24.029,93.95,13.035,96.501l2.527,28.599C16.3,124.05,17.384,123.231,18.743,122.926z"/>
			<path d="M223.675,274.198l30.933-3.433l-7.801-103.954c-7.396,1.113-21.087,2.73-38.284,2.73c-13.064,0-28.125-0.93-43.988-3.723
				c-16.98-2.992-31.428-8.058-45.024-13.506c-0.3,2.892-1.251,6.362-3.672,10.126c-11.476,17.942-46.345,28.777-103.565,32.299
				L0,353.731c28.017-7.679,126.715-30.052,212.924,7.593V177.777c0-2.971,2.404-5.375,5.375-5.375c2.979,0,5.375,2.404,5.375,5.375
				V274.198z"/>
			<path d="M438.683,242.372c-0.272-0.651-0.41-1.354-0.41-2.059v-51.722l-9.533-22.011c-15.532,2.935-29.532,4.478-41.784,4.478
				c-20.262,0-35.947-4.005-46.919-12.005c-7.959-5.795-11.328-12.221-12.787-16.358c-24.305,8.705-49.378,16.93-69.818,21.996
				l8.295,110.442c0.021,0.321-0.084,0.604-0.111,0.919c-0.037,0.367-0.026,0.762-0.131,1.112c-0.109,0.332-0.314,0.589-0.478,0.888
				c-0.163,0.31-0.288,0.631-0.514,0.909c-0.227,0.262-0.52,0.451-0.782,0.67c-0.268,0.211-0.499,0.463-0.792,0.62
				c-0.312,0.169-0.668,0.221-1.015,0.325c-0.314,0.106-0.588,0.274-0.934,0.312l-37.279,4.146v66.804l35.368,50.173
				c16.546-36.146,57.371-63.201,119.015-78.578c38.175-9.518,73.607-12.073,88.914-12.761L438.683,242.372z"/>
		</g>
	</g>
</g>
<g>
</g>
<g>
</g>
<g>
</g>
<g>
</g>
<g>
</g>
<g>
</g>
<g>
</g>
<g>
</g>
<g>
</g>
<g>
</g>
<g>
</g>
<g>
</g>
<g>
</g>
<g>
</g>
<g>
</g>
</svg>
