<?xml version="1.0" encoding="utf-8"?>
<!-- Generator: Adobe Illustrator 16.0.0, SVG Export Plug-In . SVG Version: 6.00 Build 0)  -->
<!DOCTYPE svg PUBLIC "-//W3C//DTD SVG 1.1//EN" "http://www.w3.org/Graphics/SVG/1.1/DTD/svg11.dtd">
<svg version="1.1" id="Layer_1" xmlns="http://www.w3.org/2000/svg" xmlns:xlink="http://www.w3.org/1999/xlink" x="0px" y="0px"
	 width="512px" height="512px" viewBox="0 0 512 512" enable-background="new 0 0 512 512" xml:space="preserve">
<text transform="matrix(1 0 0 1 168.783 543.8093)" fill="#FFFF00" font-family="'Verdana-Bold'" font-size="20">simpleicon.com</text>
<text transform="matrix(1 0 0 1 9.1931 567.8093)" fill="#FFFF00" font-family="'Verdana'" font-size="20">Collection Of Flat Icon, Symbols And Glyph Icons</text>
<path d="M433.264,1H85.103C39.858,1,0.003,33.872,0.003,79.117v348.16c0,45.246,39.855,85.724,85.101,85.724h215.569
	c-0.403-67.108,0.097-141.838-0.229-206.772c-13.751-0.14-27.512-0.851-41.262-1.062c0.052-22.95,0.022-46.374,0.03-69.32
	c13.74-0.17,27.49-0.203,41.231-0.333c0.419-22.316-0.421-44.769,0.439-67.064c1.371-17.653,8.101-35.495,21.301-47.692
	c15.979-15.21,38.699-20.376,60.131-21.017c22.658-0.203,45.318-0.095,67.989-0.084c0.09,23.909,0.09,47.822-0.01,71.732
	c-14.651-0.026-29.311,0.027-43.96-0.032c-9.281-0.58-18.822,6.46-20.511,15.669c-0.221,16-0.08,32.009-0.071,48.004
	c21.48,0.091,42.97-0.024,64.45,0.055c-1.57,23.15-4.45,46.189-7.812,69.141c-18.977,0.171-37.969,1.883-56.937,1.991
	c-0.161,64.914,0.048,139.675-0.117,206.783h47.925C478.507,513,512,472.522,512,427.276V79.117C512.002,33.872,478.508,1,433.264,1
	z"/>
</svg>
