<?xml version="1.0" encoding="utf-8"?>
<!-- Generator: Adobe Illustrator 16.0.0, SVG Export Plug-In . SVG Version: 6.00 Build 0)  -->
<!DOCTYPE svg PUBLIC "-//W3C//DTD SVG 1.1//EN" "http://www.w3.org/Graphics/SVG/1.1/DTD/svg11.dtd">
<svg version="1.1" id="Camada_1" xmlns="http://www.w3.org/2000/svg" xmlns:xlink="http://www.w3.org/1999/xlink" x="0px" y="0px"
	 width="472px" height="286px" viewBox="0 0 472 286" style="enable-background:new 0 0 472 286;" xml:space="preserve">
<style type="text/css">
<![CDATA[
	.st0{fill:#466078;}
	.st1{fill:#E1A93D;}
	.st2{clip-path:url(#SVGID_2_);fill:none;stroke:#466078;stroke-width:13.5338;stroke-miterlimit:10;}
	.st3{fill:none;stroke:#E1A93D;stroke-width:13.5338;stroke-miterlimit:10;}
	.st4{clip-path:url(#SVGID_6_);fill:none;stroke:#7A9BB0;stroke-width:13.5338;stroke-miterlimit:10;}
	.st5{fill:none;stroke:#7A9BB0;stroke-width:13.5338;stroke-miterlimit:10;}
	.st6{clip-path:url(#SVGID_4_);fill:none;stroke:#466078;stroke-width:13.5338;stroke-miterlimit:10;}
]]>
</style>
<g>
	<g>
		<g>
			<defs>
				<polygon id="SVGID_1_" points="208.4,34.8 208.4,126 153.4,115.5 133.7,115.5 168.9,175.8 250.7,181.5 295.1,137.1 295.1,64.7 
									"/>
			</defs>
			<clipPath id="SVGID_2_">
				<use xlink:href="#SVGID_1_"  style="overflow:visible;"/>
			</clipPath>
			<path class="st2" d="M266.9,99.7l-59.5-59.5c-1.2-1.2-2.7-1.8-4.2-1.8v37.5v34.9h-61.6l57,57c2.4,2.4,6.3,2.4,8.8,0l59.5-59.4
				C269.4,106,269.4,102.1,266.9,99.7z"/>
		</g>
		<path class="st5" d="M290.8,108.4c-2.4-2.4-2.4-6.3,0-8.8l26.5-26.5l-33-33c-2.4-2.4-6.3-2.4-8.8,0l-59.5,59.5
			c-2.4,2.4-2.4,6.3,0,8.8l59.5,59.4c2.4,2.4,6.3,2.4,8.8,0l33-33L290.8,108.4z"/>
		<path class="st3" d="M246.5,167.9c-2.4,2.4-6.3,2.4-8.8,0l-59.5-59.4c-2.4-2.4-2.4-6.3,0-8.8l59.5-59.5c2.4-2.4,6.3-2.4,8.8,0
			L306,99.7c2.4,2.4,2.4,6.3,0,8.8L246.5,167.9z"/>
		<g>
			<defs>
				<polyline id="SVGID_3_" points="242.1,150.4 228.3,173.4 250.7,181.5 295.1,137.1 295.1,64.7 208.4,40.2 208.4,126 				"/>
			</defs>
			<clipPath id="SVGID_4_">
				<use xlink:href="#SVGID_3_"  style="overflow:visible;"/>
			</clipPath>
			<path class="st6" d="M266.9,99.7l-59.5-59.5c-1.2-1.2-2.7-1.8-4.2-1.8v37.5v34.9h-61.6l57,57c2.4,2.4,6.3,2.4,8.8,0l59.5-59.4
				C269.4,106,269.4,102.1,266.9,99.7z"/>
		</g>
		<circle class="st1" cx="335" cy="103.3" r="17.2"/>
		<g>
			<defs>
				<polygon id="SVGID_5_" points="279.3,186.3 360.4,202 320.7,53.3 279.3,34.8 				"/>
			</defs>
			<clipPath id="SVGID_6_">
				<use xlink:href="#SVGID_5_"  style="overflow:visible;"/>
			</clipPath>
			<path class="st4" d="M290.2,108.4c-2.4-2.4-2.4-6.3,0-8.8l26.5-26.5l-33-33c-2.4-2.4-6.3-2.4-8.8,0l-59.5,59.5
				c-2.4,2.4-2.4,6.3,0,8.8l59.5,59.4c2.4,2.4,6.3,2.4,8.8,0l33-33L290.2,108.4z"/>
		</g>
	</g>
	<g>
		<g>
			<path class="st0" d="M54.5,200.9h3.3v34.2c0,3.8-0.9,6.7-2.8,8.7c-1.9,2-4.6,3.1-8.3,3.1h-3.4v-3h3.3c2.6,0,4.5-0.7,5.9-2.1
				c1.3-1.4,2-3.6,2-6.6V200.9z"/>
			<path class="st0" d="M89.2,237.1c0,1.4-0.3,2.7-0.8,3.9c-0.5,1.2-1.2,2.3-2.2,3.2c-1,0.9-2.2,1.7-3.6,2.2c-1.4,0.5-3.1,0.8-5,0.8
				c-1.9,0-3.5-0.3-5-0.8c-1.4-0.5-2.6-1.3-3.6-2.2c-1-0.9-1.7-2-2.2-3.2c-0.5-1.2-0.8-2.5-0.8-3.9v-36.1h3.3v36.1
				c0,1,0.2,1.9,0.5,2.8c0.4,0.9,0.9,1.6,1.6,2.3c0.7,0.7,1.6,1.2,2.6,1.5c1,0.4,2.2,0.6,3.5,0.6c1.3,0,2.5-0.2,3.5-0.6
				c1-0.4,1.9-0.9,2.6-1.5c0.7-0.7,1.2-1.4,1.6-2.3c0.4-0.9,0.5-1.8,0.5-2.8v-36.1h3.3V237.1z"/>
			<path class="st0" d="M107.9,200.9h9.9v3H108c-2.6,0-4.5,0.7-5.9,2.1c-1.3,1.4-2,3.6-2,6.6h-3.3c0-3.8,0.9-6.7,2.8-8.7
				C101.5,202,104.3,200.9,107.9,200.9z M119.3,235.2c0,3.8-1,6.7-2.9,8.7c-1.9,2-4.7,3.1-8.4,3.1H97.3v-3H108c5.3,0,8-2.9,8-8.6
				c0-1.9-0.3-3.4-0.8-4.5c-0.5-1.1-1.2-2-2.1-2.7c-0.9-0.7-1.8-1.2-2.9-1.6c-1.1-0.4-2.2-0.7-3.3-1.1c-1.2-0.4-2.4-0.8-3.5-1.3
				c-1.2-0.5-2.2-1.1-3.1-1.9c-0.9-0.8-1.7-1.8-2.3-3.1c-0.6-1.2-1-2.8-1.1-4.7l3.2-1.3c0,1.8,0.3,3.2,0.8,4.2
				c0.5,1.1,1.1,1.9,1.9,2.6c0.8,0.7,1.7,1.2,2.8,1.5c1.1,0.4,2.2,0.8,3.4,1.2c1.4,0.4,2.6,1,3.9,1.5c1.2,0.6,2.3,1.4,3.3,2.3
				c1,0.9,1.7,2.1,2.3,3.5C119,231.3,119.3,233.1,119.3,235.2z"/>
			<path class="st0" d="M124.5,204v-3h22.3v3H124.5z M137.3,204.2v42.8H134v-41.5L137.3,204.2z"/>
			<path class="st0" d="M177.2,213v22.1c0,3.9-0.9,6.8-2.8,8.9c-1.9,2.1-4.6,3.2-8.3,3.2H164c-3.6,0-6.4-1.1-8.3-3.2
				c-1.9-2.1-2.8-5.1-2.8-8.9v-22.5c0-3.9,0.9-6.8,2.8-8.9c1.9-2.1,4.6-3.2,8.3-3.2h2.1c3.6,0,6.3,1.1,8.2,3.2
				c1.9,2.1,2.9,5.1,2.9,8.9h-3.3c0-3.1-0.7-5.3-2-6.8c-1.3-1.5-3.3-2.2-5.9-2.2h-2c-2.6,0-4.5,0.7-5.9,2.2c-1.3,1.5-2,3.8-2,6.8
				v22.5c0,3.1,0.7,5.3,2,6.8c1.3,1.5,3.3,2.2,5.9,2.2h2c2.5,0,4.5-0.7,5.8-2.2c1.4-1.5,2-3.8,2-6.8v-20.8L177.2,213z"/>
			<path class="st0" d="M223.1,213v22.1c0,3.9-0.9,6.8-2.8,8.9c-1.9,2.1-4.6,3.2-8.3,3.2h-2.1c-3.6,0-6.4-1.1-8.3-3.2
				c-1.9-2.1-2.8-5.1-2.8-8.9v-22.5c0-3.9,0.9-6.8,2.8-8.9c1.9-2.1,4.6-3.2,8.3-3.2h2.1c3.6,0,6.3,1.1,8.2,3.2
				c1.9,2.1,2.9,5.1,2.9,8.9h-3.3c0-3.1-0.7-5.3-2-6.8c-1.3-1.5-3.3-2.2-5.9-2.2h-2c-2.6,0-4.5,0.7-5.9,2.2c-1.3,1.5-2,3.8-2,6.8
				v22.5c0,3.1,0.7,5.3,2,6.8c1.3,1.5,3.3,2.2,5.9,2.2h2c2.5,0,4.5-0.7,5.8-2.2c1.4-1.5,2-3.8,2-6.8v-20.8L223.1,213z"/>
			<path class="st0" d="M254.5,237.1c0,1.4-0.3,2.7-0.8,3.9c-0.5,1.2-1.2,2.3-2.2,3.2c-1,0.9-2.2,1.7-3.6,2.2
				c-1.4,0.5-3.1,0.8-5,0.8c-1.9,0-3.5-0.3-5-0.8c-1.4-0.5-2.6-1.3-3.6-2.2c-1-0.9-1.7-2-2.2-3.2c-0.5-1.2-0.8-2.5-0.8-3.9v-36.1
				h3.3v36.1c0,1,0.2,1.9,0.5,2.8c0.4,0.9,0.9,1.6,1.6,2.3c0.7,0.7,1.6,1.2,2.6,1.5c1,0.4,2.2,0.6,3.5,0.6c1.3,0,2.5-0.2,3.5-0.6
				c1-0.4,1.9-0.9,2.6-1.5c0.7-0.7,1.2-1.4,1.6-2.3c0.4-0.9,0.5-1.8,0.5-2.8v-36.1h3.3V237.1z"/>
			<path class="st0" d="M285.9,222.4c2.8,0,4.9-0.7,6.3-2.2c1.5-1.4,2.2-3.2,2.2-5.2v-3.6c0-1-0.2-2-0.5-2.9
				c-0.4-0.9-0.9-1.7-1.5-2.4c-0.7-0.7-1.5-1.2-2.5-1.6c-1-0.4-2.1-0.6-3.4-0.6h-9.9v-3h9.9c1.8,0,3.4,0.3,4.8,0.9
				c1.4,0.6,2.6,1.3,3.5,2.3c0.9,0.9,1.7,2,2.1,3.3c0.5,1.3,0.7,2.6,0.7,4.1v3.6c0,2-0.6,3.8-1.8,5.4c-1.2,1.6-2.9,2.7-5.3,3.5
				c2.5,0.6,4.4,1.7,5.7,3.4c1.3,1.6,2,3.5,2,5.6v3.6c0,1.4-0.2,2.8-0.7,4.1c-0.5,1.3-1.2,2.4-2.1,3.3c-0.9,0.9-2.1,1.7-3.5,2.3
				c-1.4,0.6-3,0.9-4.8,0.9h-5.6l-1.3-3h6.9c1.3,0,2.4-0.2,3.4-0.6c1-0.4,1.8-0.9,2.5-1.6c0.7-0.7,1.2-1.5,1.5-2.4
				c0.4-0.9,0.5-1.9,0.5-2.9v-3.6c0-2-0.7-3.7-2.2-5.2c-1.5-1.4-3.6-2.2-6.3-2.2h-3.3l-1.3-3H285.9z M276.7,205.6l3.3-1.3v42.6h-3.3
				V205.6z"/>
			<path class="st0" d="M326,234.7h-12.7l-1.3-3h13.1l-4.5-16.8c-0.5-1.8-0.9-3.7-1.1-5.5c-0.3-1.8-0.6-3.7-1-5.5h-0.1
				c-0.4,1.8-0.7,3.7-1,5.5c-0.3,1.8-0.7,3.7-1.1,5.5l-8.7,32h-3.4l12.6-46h3.3l12.6,46h-3.4L326,234.7z"/>
			<path class="st0" d="M343.4,226.5h5.9c1.3,0,2.4-0.2,3.4-0.7c1-0.4,1.8-1,2.5-1.8c0.7-0.7,1.2-1.6,1.5-2.6c0.4-1,0.5-2,0.5-3.1
				v-6.2c0-1.1-0.2-2.1-0.5-3.1c-0.4-1-0.9-1.9-1.5-2.6c-0.7-0.7-1.5-1.3-2.5-1.8c-1-0.4-2.1-0.7-3.4-0.7h-9.9v-3h9.9
				c1.8,0,3.4,0.3,4.8,0.9c1.4,0.6,2.6,1.4,3.5,2.4c0.9,1,1.7,2.2,2.1,3.6c0.5,1.4,0.7,2.8,0.7,4.3v6.2c0,2.4-0.6,4.5-1.7,6.3
				c-1.1,1.9-2.8,3.2-5,4l6.8,18.2h-3.5l-6.8-17.4h-5.7L343.4,226.5z M339.4,205.7l3.3-1.3v42.6h-3.3V205.7z"/>
			<path class="st0" d="M387.6,234.7h-12.7l-1.3-3h13.1l-4.5-16.8c-0.5-1.8-0.9-3.7-1.1-5.5c-0.3-1.8-0.6-3.7-1-5.5H380
				c-0.4,1.8-0.7,3.7-1,5.5c-0.3,1.8-0.7,3.7-1.1,5.5l-8.7,32h-3.4l12.6-46h3.3l12.6,46H391L387.6,234.7z"/>
			<path class="st0" d="M395.4,204v-3h22.3v3H395.4z M408.2,204.2v42.8H405v-41.5L408.2,204.2z"/>
			<path class="st0" d="M448.2,213v22.1c0,3.9-0.9,6.8-2.8,8.9c-1.9,2.1-4.6,3.2-8.3,3.2H435c-3.6,0-6.4-1.1-8.3-3.2
				c-1.9-2.1-2.8-5.1-2.8-8.9v-22.5c0-3.9,0.9-6.8,2.8-8.9c1.9-2.1,4.6-3.2,8.3-3.2h2.1c3.6,0,6.3,1.1,8.2,3.2s2.9,5.1,2.9,8.9h-3.3
				c0-3.1-0.7-5.3-2-6.8c-1.3-1.5-3.3-2.2-5.9-2.2h-2c-2.6,0-4.5,0.7-5.9,2.2c-1.3,1.5-2,3.8-2,6.8v22.5c0,3.1,0.7,5.3,2,6.8
				c1.3,1.5,3.3,2.2,5.9,2.2h2c2.5,0,4.5-0.7,5.8-2.2c1.4-1.5,2-3.8,2-6.8v-20.8L448.2,213z"/>
		</g>
	</g>
</g>
<g>
</g>
<g>
</g>
<g>
</g>
<g>
</g>
<g>
</g>
<g>
</g>
</svg>
