<?xml version="1.0" encoding="utf-8"?>
<!-- Generator: Adobe Illustrator 16.0.0, SVG Export Plug-In . SVG Version: 6.00 Build 0)  -->
<!DOCTYPE svg PUBLIC "-//W3C//DTD SVG 1.1//EN" "http://www.w3.org/Graphics/SVG/1.1/DTD/svg11.dtd">
<svg version="1.1" id="Camada_1" xmlns="http://www.w3.org/2000/svg" xmlns:xlink="http://www.w3.org/1999/xlink" x="0px" y="0px"
	 width="447.3px" height="413.5px" viewBox="0 0 447.3 413.5" style="enable-background:new 0 0 447.3 413.5;" xml:space="preserve"
	>
<style type="text/css">
<![CDATA[
	.st0{fill:none;stroke:#E0B044;stroke-width:15.3679;stroke-miterlimit:10;}
	.st1{clip-path:url(#SVGID_2_);fill:none;stroke:#526379;stroke-width:15.3679;stroke-miterlimit:10;}
	.st2{fill:#E0B044;}
	.st3{clip-path:url(#SVGID_6_);fill:none;stroke:#8DA6BB;stroke-width:15.3679;stroke-miterlimit:10;}
	.st4{fill:none;stroke:#8DA6BB;stroke-width:15.3679;stroke-miterlimit:10;}
	.st5{fill:#526379;stroke:#526379;stroke-width:2;stroke-miterlimit:10;}
	.st6{clip-path:url(#SVGID_4_);fill:none;stroke:#526379;stroke-width:15.3679;stroke-miterlimit:10;}
]]>
</style>
<g>
	<defs>
		<polygon id="SVGID_1_" points="145.5,-40.9 145.5,202.8 33.1,181.3 -44.5,181.3 -44.5,316.2 232.2,316.2 322.9,225.5 322.9,77.3 
					"/>
	</defs>
	<clipPath id="SVGID_2_">
		<use xlink:href="#SVGID_1_"  style="overflow:visible;"/>
	</clipPath>
	<path class="st1" d="M265.3,148.8L143.7,27.2c-2.4-2.4-5.5-3.6-8.6-3.7v76.8v71.3H9.1l116.7,116.7c4.9,4.9,13,4.9,17.9,0
		l121.6-121.6C270.3,161.8,270.3,153.8,265.3,148.8z"/>
</g>
<path class="st4" d="M314.2,166.7c-4.9-4.9-4.9-13,0-17.9l54.1-54.1l-67.5-67.5c-4.9-4.9-13-4.9-17.9,0L161.3,148.8
	c-4.9,4.9-4.9,13,0,17.9l121.6,121.6c4.9,4.9,13,4.9,17.9,0l67.5-67.5L314.2,166.7z"/>
<path class="st0" d="M223.6,288.4c-4.9,4.9-13,4.9-17.9,0L84,166.7c-4.9-4.9-4.9-13,0-17.9L205.6,27.2c4.9-4.9,13-4.9,17.9,0
	l121.6,121.6c4.9,4.9,4.9,13,0,17.9L223.6,288.4z"/>
<g>
	<defs>
		<polyline id="SVGID_3_" points="214.6,252.8 186.2,299.8 232.2,316.2 322.9,225.5 322.9,77.3 145.5,-40.9 145.5,202.8 		"/>
	</defs>
	<clipPath id="SVGID_4_">
		<use xlink:href="#SVGID_3_"  style="overflow:visible;"/>
	</clipPath>
	<path class="st6" d="M265.3,148.8L143.7,27.2c-2.4-2.4-5.5-3.6-8.6-3.7v76.8v71.3H9.1l116.7,116.7c4.9,4.9,13,4.9,17.9,0
		l121.6-121.6C270.3,161.8,270.3,153.8,265.3,148.8z"/>
</g>
<circle class="st2" cx="404.5" cy="156.2" r="35.1"/>
<g>
	<defs>
		<polygon id="SVGID_5_" points="290.6,326.1 456.6,358.3 456.6,-27.3 290.6,-47 		"/>
	</defs>
	<clipPath id="SVGID_6_">
		<use xlink:href="#SVGID_5_"  style="overflow:visible;"/>
	</clipPath>
	<path class="st3" d="M313,166.7c-4.9-4.9-4.9-13,0-17.9l54.1-54.1l-67.5-67.5c-4.9-4.9-13-4.9-17.9,0L160.1,148.8
		c-4.9,4.9-4.9,13,0,17.9l121.6,121.6c4.9,4.9,13,4.9,17.9,0l67.5-67.5L313,166.7z"/>
</g>
<g>
	<g>
		<path class="st5" d="M22.7,353.4h3.4v35.4c0,3.9-1,6.9-2.9,9c-1.9,2.1-4.8,3.2-8.6,3.2h-3.5v-3.1h3.4c2.7,0,4.7-0.7,6.1-2.2
			c1.4-1.5,2.1-3.8,2.1-6.8V353.4z"/>
		<path class="st5" d="M58.6,390.8c0,1.5-0.3,2.8-0.8,4.1c-0.5,1.3-1.3,2.4-2.3,3.3c-1,1-2.2,1.7-3.7,2.3c-1.5,0.6-3.2,0.8-5.1,0.8
			c-1.9,0-3.7-0.3-5.1-0.8c-1.5-0.6-2.7-1.3-3.7-2.3c-1-1-1.8-2.1-2.3-3.3c-0.5-1.3-0.8-2.6-0.8-4.1v-37.4h3.4v37.4
			c0,1,0.2,2,0.5,2.9c0.4,0.9,0.9,1.7,1.6,2.4c0.7,0.7,1.6,1.2,2.7,1.6c1.1,0.4,2.3,0.6,3.6,0.6s2.6-0.2,3.6-0.6
			c1.1-0.4,2-0.9,2.7-1.6c0.7-0.7,1.3-1.5,1.6-2.4c0.4-0.9,0.5-1.9,0.5-2.9v-37.4h3.4V390.8z"/>
		<path class="st5" d="M78,353.4h10.3v3.1H78c-2.7,0-4.7,0.7-6.1,2.2c-1.4,1.5-2.1,3.8-2.1,6.8h-3.4c0-3.9,1-6.9,2.9-9
			C71.3,354.4,74.2,353.4,78,353.4z M89.7,388.8c0,3.9-1,6.9-3,9c-2,2.1-4.9,3.2-8.7,3.2H67v-3.1h11.1c5.5,0,8.2-3,8.2-8.9
			c0-1.9-0.3-3.5-0.8-4.7c-0.5-1.2-1.3-2.1-2.1-2.8c-0.9-0.7-1.9-1.3-3-1.7c-1.1-0.4-2.2-0.8-3.4-1.1c-1.2-0.4-2.4-0.9-3.6-1.4
			c-1.2-0.5-2.3-1.2-3.2-2c-1-0.8-1.8-1.9-2.4-3.2c-0.7-1.3-1.1-2.9-1.2-4.9l3.3-1.4c0,1.8,0.3,3.3,0.8,4.4c0.5,1.1,1.2,2,2,2.7
			c0.8,0.7,1.8,1.2,2.9,1.6c1.1,0.4,2.2,0.8,3.5,1.2c1.4,0.5,2.7,1,4,1.6c1.3,0.6,2.4,1.4,3.4,2.4c1,1,1.8,2.2,2.4,3.6
			C89.4,384.8,89.7,386.6,89.7,388.8z"/>
		<path class="st5" d="M95.1,356.5v-3.1h23.1v3.1H95.1z M108.4,356.7V401H105v-42.9L108.4,356.7z"/>
		<path class="st5" d="M149.7,365.9v22.9c0,4-1,7.1-2.9,9.2c-1.9,2.2-4.8,3.3-8.6,3.3H136c-3.8,0-6.6-1.1-8.6-3.3
			c-1.9-2.2-2.9-5.3-2.9-9.2v-23.3c0-4,1-7.1,2.9-9.2c1.9-2.2,4.8-3.3,8.6-3.3h2.2c3.7,0,6.6,1.1,8.5,3.3c2,2.2,3,5.3,3,9.2h-3.4
			c0-3.2-0.7-5.5-2.1-7.1c-1.4-1.5-3.4-2.3-6.1-2.3h-2c-2.7,0-4.7,0.8-6.1,2.3c-1.4,1.5-2.1,3.9-2.1,7.1v23.3c0,3.2,0.7,5.5,2.1,7.1
			c1.4,1.5,3.4,2.3,6.1,2.3h2c2.6,0,4.6-0.8,6.1-2.3c1.4-1.5,2.1-3.9,2.1-7.1v-21.6L149.7,365.9z"/>
		<path class="st5" d="M197.2,365.9v22.9c0,4-1,7.1-2.9,9.2c-1.9,2.2-4.8,3.3-8.6,3.3h-2.2c-3.8,0-6.6-1.1-8.6-3.3
			c-1.9-2.2-2.9-5.3-2.9-9.2v-23.3c0-4,1-7.1,2.9-9.2c1.9-2.2,4.8-3.3,8.6-3.3h2.2c3.7,0,6.6,1.1,8.5,3.3c2,2.2,3,5.3,3,9.2h-3.4
			c0-3.2-0.7-5.5-2.1-7.1c-1.4-1.5-3.4-2.3-6.1-2.3h-2c-2.7,0-4.7,0.8-6.1,2.3c-1.4,1.5-2.1,3.9-2.1,7.1v23.3c0,3.2,0.7,5.5,2.1,7.1
			c1.4,1.5,3.4,2.3,6.1,2.3h2c2.6,0,4.6-0.8,6.1-2.3c1.4-1.5,2.1-3.9,2.1-7.1v-21.6L197.2,365.9z"/>
		<path class="st5" d="M229.7,390.8c0,1.5-0.3,2.8-0.8,4.1c-0.5,1.3-1.3,2.4-2.3,3.3c-1,1-2.2,1.7-3.7,2.3c-1.5,0.6-3.2,0.8-5.1,0.8
			c-1.9,0-3.7-0.3-5.1-0.8c-1.5-0.6-2.7-1.3-3.7-2.3c-1-1-1.8-2.1-2.3-3.3c-0.5-1.3-0.8-2.6-0.8-4.1v-37.4h3.4v37.4
			c0,1,0.2,2,0.5,2.9c0.4,0.9,0.9,1.7,1.6,2.4c0.7,0.7,1.6,1.2,2.7,1.6c1.1,0.4,2.3,0.6,3.6,0.6s2.6-0.2,3.6-0.6
			c1.1-0.4,2-0.9,2.7-1.6c0.7-0.7,1.3-1.5,1.6-2.4c0.4-0.9,0.5-1.9,0.5-2.9v-37.4h3.4V390.8z"/>
		<path class="st5" d="M262.2,375.6c2.9,0,5-0.7,6.6-2.2c1.5-1.5,2.3-3.3,2.3-5.4v-3.7c0-1-0.2-2-0.5-3c-0.4-1-0.9-1.8-1.6-2.5
			c-0.7-0.7-1.5-1.3-2.5-1.7c-1-0.4-2.2-0.6-3.5-0.6h-10.2v-3.1h10.2c1.9,0,3.5,0.3,5,0.9c1.5,0.6,2.7,1.4,3.6,2.3
			c1,1,1.7,2.1,2.2,3.4c0.5,1.3,0.7,2.7,0.7,4.2v3.7c0,2.1-0.6,3.9-1.8,5.5c-1.2,1.6-3,2.8-5.4,3.6c2.6,0.6,4.6,1.8,5.9,3.5
			c1.4,1.7,2,3.6,2,5.8v3.7c0,1.5-0.2,2.9-0.7,4.2c-0.5,1.3-1.2,2.5-2.2,3.4c-1,1-2.2,1.8-3.6,2.3c-1.5,0.6-3.1,0.9-5,0.9h-5.8
			l-1.4-3.1h7.1c1.3,0,2.5-0.2,3.5-0.6s1.9-1,2.5-1.7c0.7-0.7,1.2-1.5,1.6-2.5c0.4-1,0.5-1.9,0.5-3v-3.7c0-2.1-0.8-3.9-2.3-5.4
			c-1.5-1.5-3.7-2.2-6.6-2.2h-3.4l-1.4-3.1H262.2z M252.6,358.2l3.4-1.4V401h-3.4V358.2z"/>
		<path class="st5" d="M303.7,388.3h-13.1l-1.4-3.1h13.6l-4.7-17.3c-0.5-1.9-0.9-3.8-1.2-5.7c-0.3-1.9-0.6-3.8-1-5.7h-0.1
			c-0.4,1.9-0.7,3.8-1,5.7c-0.3,1.9-0.7,3.8-1.2,5.7l-9,33.1h-3.5l13.1-47.6h3.4l13.1,47.6h-3.5L303.7,388.3z"/>
		<path class="st5" d="M321.7,379.8h6.1c1.3,0,2.5-0.2,3.5-0.7c1-0.5,1.9-1.1,2.5-1.8c0.7-0.8,1.2-1.7,1.6-2.7
			c0.4-1,0.5-2.1,0.5-3.2v-6.5c0-1.1-0.2-2.2-0.5-3.2c-0.4-1-0.9-1.9-1.6-2.7c-0.7-0.8-1.5-1.4-2.5-1.8c-1-0.5-2.2-0.7-3.5-0.7
			h-10.2v-3.1h10.2c1.9,0,3.5,0.3,5,0.9c1.5,0.6,2.7,1.5,3.6,2.5c1,1.1,1.7,2.3,2.2,3.7c0.5,1.4,0.7,2.9,0.7,4.4v6.5
			c0,2.4-0.6,4.6-1.7,6.6c-1.2,1.9-2.9,3.3-5.1,4.2l7,18.8h-3.6l-7-18H323L321.7,379.8z M317.6,358.3l3.4-1.4V401h-3.4V358.3z"/>
		<path class="st5" d="M367.4,388.3h-13.1l-1.4-3.1h13.6l-4.7-17.3c-0.5-1.9-0.9-3.8-1.2-5.7c-0.3-1.9-0.6-3.8-1-5.7h-0.1
			c-0.4,1.9-0.7,3.8-1,5.7c-0.3,1.9-0.7,3.8-1.2,5.7l-9,33.1h-3.5l13.1-47.6h3.4l13.1,47.6h-3.5L367.4,388.3z"/>
		<path class="st5" d="M375.5,356.5v-3.1h23.1v3.1H375.5z M388.8,356.7V401h-3.4v-42.9L388.8,356.7z"/>
		<path class="st5" d="M430.1,365.9v22.9c0,4-1,7.1-2.9,9.2s-4.8,3.3-8.6,3.3h-2.2c-3.8,0-6.6-1.1-8.6-3.3c-2-2.2-2.9-5.3-2.9-9.2
			v-23.3c0-4,1-7.1,2.9-9.2c1.9-2.2,4.8-3.3,8.6-3.3h2.2c3.7,0,6.6,1.1,8.5,3.3c2,2.2,3,5.3,3,9.2h-3.4c0-3.2-0.7-5.5-2.1-7.1
			c-1.4-1.5-3.4-2.3-6.1-2.3h-2c-2.7,0-4.7,0.8-6.1,2.3c-1.4,1.5-2.1,3.9-2.1,7.1v23.3c0,3.2,0.7,5.5,2.1,7.1
			c1.4,1.5,3.4,2.3,6.1,2.3h2c2.6,0,4.6-0.8,6.1-2.3c1.4-1.5,2.1-3.9,2.1-7.1v-21.6L430.1,365.9z"/>
	</g>
</g>
<g>
</g>
<g>
</g>
<g>
</g>
<g>
</g>
<g>
</g>
<g>
</g>
</svg>
